<mxfile host="app.diagrams.net" modified="2024-03-24T08:41:54.802Z" agent="Mozilla/5.0 (Windows NT 10.0; Win64; x64) AppleWebKit/537.36 (KHTML, like Gecko) Chrome/122.0.0.0 Safari/537.36" version="24.1.0" etag="e6KgEJMzVZ_ziNGolcwk" type="github">
  <diagram name="Страница — 1" id="Aj6e7qNVlzzLR_mECiuO">
    <mxGraphModel>
      <root>
        <mxCell id="0" />
        <mxCell id="1" parent="0" />
      </root>
    </mxGraphModel>
  </diagram>
</mxfile>
